:FULLY-SPECIFIED
:FORCE-ALL-JOINTS-BE-3DOF
:DEGREES
816
root -4.50688 14.673 -40.19 401.873 -71.2425 327.018
lfemur -69.5615 19.8415 -21.2107
ltibia 85.2019 0 0
lfoot -7.03248 8.43849 0
ltoes -15.2831 0 0
rfemur -31.2 -8.70844 21.6929
rtibia 71.5221 0 0
rfoot -32.242 -26.3246 0
rtoes -22.6218 0 0
lowerback 17.8567 0.631517 4.26614
upperback 0.208334 1.81221 1.49474
thorax -9.76036 0.668549 -1.25534
lowerneck -2.3202 12.4224 4.8394
upperneck -1.2751 16.5163 -8.42397
head 1.22635 8.22332 -3.06186
lclavicle 1.20471e-15 4.08084e-15 0
lhumerus 101.35 -29.096 25.5071
lradius 92.2988 0 0
lwrist 10.1286 0 0
lhand -11.2637 24.1726 0
lfingers 7.12502 0 0
lthumb 14.7622 53.5354 0
rclavicle 1.20471e-15 4.08084e-15 0
rhumerus 19.6514 37.1363 -58.8968
rradius 68.073 0 0
rwrist -12.6097 0 0
rhand -10.8921 -39.7701 0
rfingers 7.12502 0 0
rthumb 15.109 -69.0181 0
817
root -4.33782 14.6943 -40.2403 398.479 -71.4563 330.542
lfemur -69.7317 19.9762 -21.7457
ltibia 85.6722 0 0
lfoot -7.22114 8.69827 0
ltoes -15.3155 0 0
rfemur -31.8001 -8.91762 22.0721
rtibia 71.609 0 0
rfoot -32.4272 -26.5481 0
rtoes -22.497 0 0
lowerback 17.9582 0.582584 4.3579
upperback 0.229687 1.76318 1.43223
thorax -9.7876 0.638925 -1.36547
lowerneck -2.29314 12.5514 4.91694
upperneck -1.34626 16.6882 -8.6097
head 1.22858 8.30882 -3.1288
lclavicle 1.8086e-15 4.83507e-15 0
lhumerus 102.408 -30.2641 23.5847
lradius 94.5062 0 0
lwrist 11.9158 0 0
lhand -10.8035 23.9976 0
lfingers 7.12502 0 0
lthumb 15.2063 53.3433 0
rclavicle 1.8086e-15 4.83507e-15 0
rhumerus 21.7005 37.6822 -58.3904
rradius 67.3804 0 0
rwrist -11.7686 0 0
rhand -11.4607 -39.8564 0
rfingers 7.12502 0 0
rthumb 14.5641 -69.1775 0
818
root -4.16876 14.7155 -40.2906 395.085 -71.6701 334.066
lfemur -69.9018 20.1108 -22.2807
ltibia 86.1424 0 0
lfoot -7.40981 8.95804 0
ltoes -15.3479 0 0
rfemur -32.4001 -9.1268 22.4512
rtibia 71.696 0 0
rfoot -32.6125 -26.7715 0
rtoes -22.3723 0 0
lowerback 18.0598 0.533652 4.44965
upperback 0.251039 1.71415 1.36971
thorax -9.81485 0.609302 -1.4756
lowerneck -2.26607 12.6804 4.99448
upperneck -1.41741 16.8602 -8.79542
head 1.23082 8.39432 -3.19574
lclavicle 2.41249e-15 5.5893e-15 0
lhumerus 103.466 -31.4322 21.6622
lradius 96.7137 0 0
lwrist 13.7031 0 0
lhand -10.3433 23.8225 0
lfingers 7.12502 0 0
lthumb 15.6503 53.1512 0
rclavicle 2.41249e-15 5.5893e-15 0
rhumerus 23.7496 38.2281 -57.884
rradius 66.6878 0 0
rwrist -10.9276 0 0
rhand -12.0293 -39.9427 0
rfingers 7.12502 0 0
rthumb 14.0192 -69.3368 0
819
root -3.99969 14.7367 -40.3409 391.69 -71.8838 337.59
lfemur -70.072 20.2455 -22.8157
ltibia 86.6127 0 0
lfoot -7.59848 9.21782 0
ltoes -15.3803 0 0
rfemur -33.0002 -9.33598 22.8304
rtibia 71.7829 0 0
rfoot -32.7978 -26.995 0
rtoes -22.2475 0 0
lowerback 18.1614 0.48472 4.5414
upperback 0.272391 1.66512 1.3072
thorax -9.8421 0.579679 -1.58572
lowerneck -2.23901 12.8094 5.07203
upperneck -1.48856 17.0322 -8.98114
head 1.23305 8.47983 -3.26267
lclavicle 3.01639e-15 6.34353e-15 0
lhumerus 104.523 -32.6003 19.7398
lradius 98.9211 0 0
lwrist 15.4904 0 0
lhand -9.8831 23.6474 0
lfingers 7.12502 0 0
lthumb 16.0943 52.9591 0
rclavicle 3.01639e-15 6.34353e-15 0
rhumerus 25.7987 38.7739 -57.3776
rradius 65.9952 0 0
rwrist -10.0866 0 0
rhand -12.598 -40.0291 0
rfingers 7.12502 0 0
rthumb 13.4742 -69.4961 0
820
root -3.83063 14.758 -40.3912 388.296 -72.0976 341.114
lfemur -70.2421 20.3801 -23.3507
ltibia 87.0829 0 0
lfoot -7.78714 9.47759 0
ltoes -15.4127 0 0
rfemur -33.6002 -9.54516 23.2096
rtibia 71.8698 0 0
rfoot -32.9831 -27.2184 0
rtoes -22.1228 0 0
lowerback 18.2629 0.435787 4.63316
upperback 0.293744 1.61609 1.24468
thorax -9.86935 0.550055 -1.69585
lowerneck -2.21194 12.9384 5.14957
upperneck -1.55972 17.2041 -9.16687
head 1.23529 8.56533 -3.32961
lclavicle 3.62028e-15 7.09776e-15 0
lhumerus 105.581 -33.7683 17.8173
lradius 101.129 0 0
lwrist 17.2777 0 0
lhand -9.42288 23.4724 0
lfingers 7.12502 0 0
lthumb 16.5384 52.767 0
rclavicle 3.62028e-15 7.09776e-15 0
rhumerus 27.8478 39.3198 -56.8712
rradius 65.3026 0 0
rwrist -9.24557 0 0
rhand -13.1666 -40.1154 0
rfingers 7.12502 0 0
rthumb 12.9293 -69.6555 0
821
root -3.66157 14.7792 -40.4415 384.902 -72.3114 344.638
lfemur -70.4123 20.5148 -23.8857
ltibia 87.5532 0 0
lfoot -7.97581 9.73737 0
ltoes -15.4451 0 0
rfemur -34.2003 -9.75434 23.5888
rtibia 71.9567 0 0
rfoot -33.1684 -27.4419 0
rtoes -21.998 0 0
lowerback 18.3645 0.386855 4.72491
upperback 0.315096 1.56706 1.18217
thorax -9.8966 0.520432 -1.80598
lowerneck -2.18488 13.0674 5.22711
upperneck -1.63087 17.3761 -9.35259
head 1.23752 8.65083 -3.39655
lclavicle 4.22417e-15 7.85199e-15 0
lhumerus 106.639 -34.9364 15.8949
lradius 103.336 0 0
lwrist 19.065 0 0
lhand -8.96267 23.2973 0
lfingers 7.12502 0 0
lthumb 16.9824 52.5749 0
rclavicle 4.22417e-15 7.85199e-15 0
rhumerus 29.8969 39.8657 -56.3648
rradius 64.61 0 0
rwrist -8.40454 0 0
rhand -13.7352 -40.2017 0
rfingers 7.12502 0 0
rthumb 12.3844 -69.8148 0
822
root -3.61451 14.7793 -40.3799 384.463 -71.469 344.846
lfemur -69.7181 20.4715 -23.1334
ltibia 86.577 0 0
lfoot -7.58558 9.65102 0
ltoes -15.4036 0 0
rfemur -33.6347 -9.81417 23.2674
rtibia 71.7296 0 0
rfoot -32.9124 -27.4638 0
rtoes -21.9733 0 0
lowerback 18.2902 0.425986 4.64174
upperback 0.288688 1.60278 1.19351
thorax -9.88623 0.542544 -1.75388
lowerneck -2.27217 12.9603 5.13758
upperneck -1.46065 17.2355 -9.17684
head 1.27912 8.57952 -3.32431
lclavicle 2.40329e-15 7.71623e-15 0
lhumerus 104.008 -34.1642 16.9785
lradius 101.86 0 0
lwrist 18.1307 0 0
lhand -9.74115 23.6527 0
lfingers 7.12502 0 0
lthumb 16.2312 52.9362 0
rclavicle 2.40329e-15 7.71623e-15 0
rhumerus 27.3839 39.2787 -57.2418
rradius 65.7913 0 0
rwrist -9.70399 0 0
rhand -13.6499 -39.8025 0
rfingers 7.12502 0 0
rthumb 12.4666 -69.4099 0
823
root -3.56746 14.7793 -40.3182 384.023 -70.6265 345.054
lfemur -69.024 20.4281 -22.3811
ltibia 85.6008 0 0
lfoot -7.19534 9.56466 0
ltoes -15.3621 0 0
rfemur -33.069 -9.874 22.9459
rtibia 71.5024 0 0
rfoot -32.6563 -27.4856 0
rtoes -21.9486 0 0
lowerback 18.2159 0.465118 4.55858
upperback 0.262281 1.63851 1.20485
thorax -9.87586 0.564657 -1.70179
lowerneck -2.35946 12.8531 5.04805
upperneck -1.29043 17.0949 -9.00108
head 1.32072 8.5082 -3.25207
lclavicle 5.8241e-16 7.58048e-15 0
lhumerus 101.377 -33.392 18.0622
lradius 100.383 0 0
lwrist 17.1963 0 0
lhand -10.5196 24.0081 0
lfingers 7.12502 0 0
lthumb 15.48 53.2976 0
rclavicle 5.8241e-16 7.58048e-15 0
rhumerus 24.8709 38.6917 -58.1187
rradius 66.9726 0 0
rwrist -11.0034 0 0
rhand -13.5646 -39.4033 0
rfingers 7.12502 0 0
rthumb 12.5488 -69.005 0
824
root -3.5204 14.7794 -40.2566 383.584 -69.7841 345.262
lfemur -68.3298 20.3848 -21.6288
ltibia 84.6246 0 0
lfoot -6.80511 9.47831 0
ltoes -15.3206 0 0
rfemur -32.5034 -9.93382 22.6245
rtibia 71.2753 0 0
rfoot -32.4003 -27.5075 0
rtoes -21.924 0 0
lowerback 18.1416 0.504249 4.47541
upperback 0.235873 1.67423 1.21619
thorax -9.8655 0.586769 -1.64969
lowerneck -2.44676 12.746 4.95851
upperneck -1.12021 16.9542 -8.82533
head 1.36232 8.43689 -3.17984
lclavicle -1.23847e-15 7.44472e-15 0
lhumerus 98.7464 -32.6198 19.1458
lradius 98.9067 0 0
lwrist 16.262 0 0
lhand -11.2981 24.3635 0
lfingers 7.12502 0 0
lthumb 14.7288 53.6589 0
rclavicle -1.23847e-15 7.44472e-15 0
rhumerus 22.3579 38.1047 -58.9957
rradius 68.154 0 0
rwrist -12.3029 0 0
rhand -13.4793 -39.0041 0
rfingers 7.12502 0 0
rthumb 12.631 -68.6 0
825
root -3.47335 14.7794 -40.195 383.144 -68.9416 345.47
lfemur -67.6356 20.3415 -20.8764
ltibia 83.6484 0 0
lfoot -6.41488 9.39195 0
ltoes -15.2791 0 0
rfemur -31.9378 -9.99365 22.303
rtibia 71.0482 0 0
rfoot -32.1443 -27.5294 0
rtoes -21.8993 0 0
lowerback 18.0672 0.54338 4.39224
upperback 0.209465 1.70996 1.22753
thorax -9.85513 0.608882 -1.5976
lowerneck -2.53405 12.6389 4.86898
upperneck -0.949994 16.8136 -8.64957
head 1.40392 8.36558 -3.1076
lclavicle -3.05935e-15 7.30897e-15 0
lhumerus 96.1155 -31.8476 20.2295
lradius 97.4303 0 0
lwrist 15.3277 0 0
lhand -12.0766 24.7189 0
lfingers 7.12502 0 0
lthumb 13.9776 54.0202 0
rclavicle -3.05935e-15 7.30897e-15 0
rhumerus 19.8449 37.5177 -59.8727
rradius 69.3353 0 0
rwrist -13.6023 0 0
rhand -13.394 -38.6049 0
rfingers 7.12502 0 0
rthumb 12.7132 -68.1951 0
826
root -3.42629 14.7795 -40.1333 382.705 -68.0992 345.678
lfemur -66.9415 20.2981 -20.1241
ltibia 82.6722 0 0
lfoot -6.02464 9.3056 0
ltoes -15.2375 0 0
rfemur -31.3722 -10.0535 21.9816
rtibia 70.8211 0 0
rfoot -31.8882 -27.5513 0
rtoes -21.8746 0 0
lowerback 17.9929 0.582512 4.30907
upperback 0.183057 1.74568 1.23887
thorax -9.84476 0.630994 -1.5455
lowerneck -2.62134 12.5318 4.77945
upperneck -0.779775 16.673 -8.47382
head 1.44553 8.29427 -3.03536
lclavicle -4.88023e-15 7.17321e-15 0
lhumerus 93.4847 -31.0754 21.3131
lradius 95.9538 0 0
lwrist 14.3933 0 0
lhand -12.8551 25.0743 0
lfingers 7.12502 0 0
lthumb 13.2264 54.3816 0
rclavicle -4.88023e-15 7.17321e-15 0
rhumerus 17.3319 36.9307 -60.7497
rradius 70.5166 0 0
rwrist -14.9018 0 0
rhand -13.3088 -38.2056 0
rfingers 7.12502 0 0
rthumb 12.7953 -67.7902 0
